# xmcd CD database file
#
# Track frame offsets:
#	150
#	9673
#	19809
#	38112
#	56518
#	71228
#	80888
#	100068
#	119335
#	134580
#	154336
#	176993
#	201633
#	216734
#	234076
#	255611
#
# Disc length: 3603 seconds
#
# Revision: 1
# Processed by: cddbd v1.4PL0 Copyright (c) Steve Scherf et al.
# Submitted via: CDValet v3.40 - Copyright (c) 1996 - 1998 Greg Leichner
#
DISCID=f50e1110
DTITLE=Sons Of The San Joaquin - 15 Years - A Retrospective
DYEAR=1900
DGENRE=
TTITLE0=Happy Cowboy
TTITLE1=Timber Trail
TTITLE2=The Gift
TTITLE3=Great American Cowboy
TTITLE4=Along The Santa Fe Trail
TTITLE5=Song Of The Rover
TTITLE6=Wyoming On My Mind
TTITLE7=Is It Because
TTITLE8=Anything But A Cowboy
TTITLE9=From Whence Came The Cowboy
TTITLE10=I Ride Along And Dream
TTITLE11=Charlie And The Boys
TTITLE12=Texas Plains
TTITLE13=UTAH (With One Eye)
TTITLE14=Ghost Riders In The Sky
TTITLE15=The Legend Of Jake Kincaid
EXTD=
EXTT0=
EXTT1=
EXTT2=
EXTT3=
EXTT4=
EXTT5=
EXTT6=
EXTT7=
EXTT8=
EXTT9=
EXTT10=
EXTT11=
EXTT12=
EXTT13=
EXTT14=
EXTT15=
PLAYORDER=
